<mxfile host="app.diagrams.net" modified="2022-05-26T18:15:39.238Z" agent="5.0 (Windows NT 10.0; Win64; x64) AppleWebKit/537.36 (KHTML, like Gecko) Chrome/102.0.5005.61 Safari/537.36" etag="PSI4rv9XavFEXEAhw7bl" version="18.1.2" type="github">
  <diagram id="iS0SyIFbfsoAaOTEKyvB" name="Page-1">
    <mxGraphModel dx="1298" dy="736" grid="1" gridSize="10" guides="1" tooltips="1" connect="1" arrows="1" fold="1" page="1" pageScale="1" pageWidth="827" pageHeight="1169" background="none" math="0" shadow="0">
      <root>
        <mxCell id="0" />
        <mxCell id="1" parent="0" />
        <mxCell id="VrzSAPqwYEhlrVGZWeiV-6" value="Médico" style="swimlane;fontStyle=0;childLayout=stackLayout;horizontal=1;startSize=26;fillColor=none;horizontalStack=0;resizeParent=1;resizeParentMax=0;resizeLast=0;collapsible=1;marginBottom=0;" vertex="1" parent="1">
          <mxGeometry x="840" y="700" width="140" height="90" as="geometry" />
        </mxCell>
        <mxCell id="VrzSAPqwYEhlrVGZWeiV-7" value="- Rut&#xa;- Nombre&#xa;- Registro médico&#xa;- Especialidad" style="text;strokeColor=none;fillColor=none;align=left;verticalAlign=top;spacingLeft=4;spacingRight=4;overflow=hidden;rotatable=0;points=[[0,0.5],[1,0.5]];portConstraint=eastwest;" vertex="1" parent="VrzSAPqwYEhlrVGZWeiV-6">
          <mxGeometry y="26" width="140" height="64" as="geometry" />
        </mxCell>
        <mxCell id="VrzSAPqwYEhlrVGZWeiV-10" value="Paciente" style="swimlane;fontStyle=0;childLayout=stackLayout;horizontal=1;startSize=26;fillColor=none;horizontalStack=0;resizeParent=1;resizeParentMax=0;resizeLast=0;collapsible=1;marginBottom=0;" vertex="1" parent="1">
          <mxGeometry x="1170.5" y="701" width="140" height="80" as="geometry" />
        </mxCell>
        <mxCell id="VrzSAPqwYEhlrVGZWeiV-11" value="- Rut&#xa;- Nombre&#xa;- Diagnóstico" style="text;strokeColor=none;fillColor=none;align=left;verticalAlign=top;spacingLeft=4;spacingRight=4;overflow=hidden;rotatable=0;points=[[0,0.5],[1,0.5]];portConstraint=eastwest;" vertex="1" parent="VrzSAPqwYEhlrVGZWeiV-10">
          <mxGeometry y="26" width="140" height="54" as="geometry" />
        </mxCell>
        <mxCell id="VrzSAPqwYEhlrVGZWeiV-23" value="" style="endArrow=classic;html=1;rounded=0;entryX=0;entryY=0.5;entryDx=0;entryDy=0;" edge="1" parent="1" target="VrzSAPqwYEhlrVGZWeiV-11">
          <mxGeometry relative="1" as="geometry">
            <mxPoint x="980" y="750" as="sourcePoint" />
            <mxPoint x="1070" y="750" as="targetPoint" />
          </mxGeometry>
        </mxCell>
        <mxCell id="VrzSAPqwYEhlrVGZWeiV-25" value="1" style="edgeLabel;resizable=0;html=1;align=left;verticalAlign=bottom;" connectable="0" vertex="1" parent="VrzSAPqwYEhlrVGZWeiV-23">
          <mxGeometry x="-1" relative="1" as="geometry" />
        </mxCell>
        <mxCell id="VrzSAPqwYEhlrVGZWeiV-28" value="1 ... *" style="text;html=1;align=center;verticalAlign=middle;resizable=0;points=[];autosize=1;strokeColor=none;fillColor=none;" vertex="1" parent="1">
          <mxGeometry x="1131" y="731" width="40" height="20" as="geometry" />
        </mxCell>
        <mxCell id="VrzSAPqwYEhlrVGZWeiV-29" value="&lt;b&gt;Atiende&lt;/b&gt;" style="text;html=1;align=center;verticalAlign=middle;resizable=0;points=[];autosize=1;strokeColor=none;fillColor=none;" vertex="1" parent="1">
          <mxGeometry x="1045" y="731" width="60" height="20" as="geometry" />
        </mxCell>
        <mxCell id="VrzSAPqwYEhlrVGZWeiV-30" value="Medico" style="swimlane;fontStyle=1;align=center;verticalAlign=top;childLayout=stackLayout;horizontal=1;startSize=26;horizontalStack=0;resizeParent=1;resizeParentMax=0;resizeLast=0;collapsible=1;marginBottom=0;" vertex="1" parent="1">
          <mxGeometry x="1171" y="1340" width="220" height="198" as="geometry" />
        </mxCell>
        <mxCell id="VrzSAPqwYEhlrVGZWeiV-31" value="- String rut&#xa;- String nombre&#xa;- String registroMedico&#xa;- String especialidad" style="text;strokeColor=none;fillColor=none;align=left;verticalAlign=top;spacingLeft=4;spacingRight=4;overflow=hidden;rotatable=0;points=[[0,0.5],[1,0.5]];portConstraint=eastwest;" vertex="1" parent="VrzSAPqwYEhlrVGZWeiV-30">
          <mxGeometry y="26" width="220" height="92" as="geometry" />
        </mxCell>
        <mxCell id="VrzSAPqwYEhlrVGZWeiV-32" value="" style="line;strokeWidth=1;fillColor=none;align=left;verticalAlign=middle;spacingTop=-1;spacingLeft=3;spacingRight=3;rotatable=0;labelPosition=right;points=[];portConstraint=eastwest;" vertex="1" parent="VrzSAPqwYEhlrVGZWeiV-30">
          <mxGeometry y="118" width="220" height="8" as="geometry" />
        </mxCell>
        <mxCell id="VrzSAPqwYEhlrVGZWeiV-33" value="+ Medico (String rut, String nombre,&#xa;String registroMedico, String esoecialidad)&#xa;+ Getters and Setters ...&#xa;+ toString: String" style="text;strokeColor=none;fillColor=none;align=left;verticalAlign=top;spacingLeft=4;spacingRight=4;overflow=hidden;rotatable=0;points=[[0,0.5],[1,0.5]];portConstraint=eastwest;" vertex="1" parent="VrzSAPqwYEhlrVGZWeiV-30">
          <mxGeometry y="126" width="220" height="72" as="geometry" />
        </mxCell>
        <mxCell id="VrzSAPqwYEhlrVGZWeiV-44" value="&lt;font face=&quot;Garamond&quot; style=&quot;font-size: 24px;&quot;&gt;&lt;b style=&quot;&quot;&gt;&lt;i style=&quot;&quot;&gt;Diagrama de clases&lt;/i&gt;&lt;/b&gt;&lt;/font&gt;" style="text;html=1;align=center;verticalAlign=middle;resizable=0;points=[];autosize=1;strokeColor=none;fillColor=none;" vertex="1" parent="1">
          <mxGeometry x="820" y="1110" width="170" height="20" as="geometry" />
        </mxCell>
        <mxCell id="VrzSAPqwYEhlrVGZWeiV-46" value="&lt;p style=&quot;margin:0px;margin-top:4px;text-align:center;&quot;&gt;&lt;i&gt;&amp;lt;&amp;lt;Interface&amp;gt;&amp;gt;&lt;/i&gt;&lt;br&gt;&lt;b&gt;SistemaMedico&lt;/b&gt;&lt;/p&gt;&lt;p style=&quot;margin:0px;margin-left:4px;&quot;&gt;&lt;br&gt;&lt;/p&gt;&lt;hr size=&quot;1&quot;&gt;&lt;p style=&quot;margin:0px;margin-left:4px;&quot;&gt;+ ingresarMedico (String rut, String nombre,&lt;/p&gt;&lt;p style=&quot;margin:0px;margin-left:4px;&quot;&gt;String registroMedico, String especialidad)&lt;/p&gt;&lt;p style=&quot;margin:0px;margin-left:4px;&quot;&gt;+ ingresarPaciente (String rut, String nombre)&lt;/p&gt;&lt;p style=&quot;margin:0px;margin-left:4px;&quot;&gt;+ asociarDiagnostico (String diagnostico, String rutPaciente)&lt;/p&gt;&lt;p style=&quot;margin:0px;margin-left:4px;&quot;&gt;+ asociarMedico (String rutPaciente, String rutMedico)&lt;/p&gt;&lt;p style=&quot;margin:0px;margin-left:4px;&quot;&gt;+ obtenerDatosMedPac (String rutPaciente): String&lt;/p&gt;&lt;p style=&quot;margin:0px;margin-left:4px;&quot;&gt;+ obtenerDatosMed (String rutMedico): String&lt;/p&gt;" style="verticalAlign=top;align=left;overflow=fill;fontSize=12;fontFamily=Helvetica;html=1;" vertex="1" parent="1">
          <mxGeometry x="820" y="1169" width="300" height="171" as="geometry" />
        </mxCell>
        <mxCell id="VrzSAPqwYEhlrVGZWeiV-60" value="Paciente" style="swimlane;fontStyle=1;align=center;verticalAlign=top;childLayout=stackLayout;horizontal=1;startSize=26;horizontalStack=0;resizeParent=1;resizeParentMax=0;resizeLast=0;collapsible=1;marginBottom=0;fontFamily=Helvetica;fontSize=12;fontColor=default;strokeColor=default;fillColor=default;" vertex="1" parent="1">
          <mxGeometry x="1241" y="1140" width="160" height="162" as="geometry" />
        </mxCell>
        <mxCell id="VrzSAPqwYEhlrVGZWeiV-61" value="- String rut&#xa;- String" style="text;strokeColor=none;fillColor=none;align=left;verticalAlign=top;spacingLeft=4;spacingRight=4;overflow=hidden;rotatable=0;points=[[0,0.5],[1,0.5]];portConstraint=eastwest;fontFamily=Helvetica;fontSize=12;fontColor=default;startSize=26;" vertex="1" parent="VrzSAPqwYEhlrVGZWeiV-60">
          <mxGeometry y="26" width="160" height="102" as="geometry" />
        </mxCell>
        <mxCell id="VrzSAPqwYEhlrVGZWeiV-62" value="" style="line;strokeWidth=1;fillColor=none;align=left;verticalAlign=middle;spacingTop=-1;spacingLeft=3;spacingRight=3;rotatable=0;labelPosition=right;points=[];portConstraint=eastwest;fontFamily=Helvetica;fontSize=12;fontColor=default;startSize=26;" vertex="1" parent="VrzSAPqwYEhlrVGZWeiV-60">
          <mxGeometry y="128" width="160" height="8" as="geometry" />
        </mxCell>
        <mxCell id="VrzSAPqwYEhlrVGZWeiV-63" value="+ method(type): type" style="text;strokeColor=none;fillColor=none;align=left;verticalAlign=top;spacingLeft=4;spacingRight=4;overflow=hidden;rotatable=0;points=[[0,0.5],[1,0.5]];portConstraint=eastwest;fontFamily=Helvetica;fontSize=12;fontColor=default;startSize=26;" vertex="1" parent="VrzSAPqwYEhlrVGZWeiV-60">
          <mxGeometry y="136" width="160" height="26" as="geometry" />
        </mxCell>
      </root>
    </mxGraphModel>
  </diagram>
</mxfile>
